# xmcd
#
# Track frame offsets:
#	150
#	15930
#	30052
#	44287
#	56797
#	70545
#	83567
#	99132
#	112405
#	127890
#	139677
#	152460
#	165645
#	178522
#	191590
#	205337
#	217120
#	231085
#	245777
#	259130
#	273097
#	288242
#	301652
#	314187
#
# Disc length: 4392 seconds
# Revision: 1
# Processed by: cddbd v1.5.2PL0 Copyright (c) Steve Scherf et al.
# Submitted via: dBpowerAMP V12.0
#
DISCID=44112618
DTITLE=Jimmie Rodgers - The Ultimate Collection
DYEAR=1999
DGENRE=Country
TTITLE0=Blue yodel (T for Texas)
TTITLE1=The soldier's sweetheart
TTITLE2=The brakeman's blues
TTITLE3=Wainting for a train
TTITLE4=My little lady
TTITLE5=Frankie and Johnny
TTITLE6=Gambling bar room blues
TTITLE7=Blue yodel n° 8 (Mule skinner blues)
TTITLE8=Roll along Kentucky moon
TTITLE9=Never no more blues
TTITLE10=Blue yodel n° 10
TTITLE11=Miss the Mississippi and you
TTITLE12=Peach pickin' time down in Georgia
TTITLE13=Pistol packin' papa
TTITLE14=T.B. blues
TTITLE15=Mississippi river blues
TTITLE16=I'm free from the chain gang now
TTITLE17=Yodelling cowboy
TTITLE18=Old pal of my heart
TTITLE19=The sailor's plea
TTITLE20=Mother, the queen of my heart
TTITLE21=Train whistle blues
TTITLE22=Any old time
TTITLE23=Jimmie Rodgers last blue yodel
EXTD=
EXTT0=
EXTT1=
EXTT2=
EXTT3=
EXTT4=
EXTT5=
EXTT6=
EXTT7=
EXTT8=
EXTT9=
EXTT10=
EXTT11=
EXTT12=
EXTT13=
EXTT14=
EXTT15=
EXTT16=
EXTT17=
EXTT18=
EXTT19=
EXTT20=
EXTT21=
EXTT22=
EXTT23=
PLAYORDER=
